<svg width="485" height="287" viewBox="0 0 485 287" fill="none" xmlns="http://www.w3.org/2000/svg">
<rect x="0.5" y="1.00391" width="484" height="285" fill="#F7F7FA" stroke="#CAD5E6"/>
<path d="M25.8646 18.1985V34.5039H22.4172V18.1985H25.8646ZM38.8121 25.762L35.7071 25.9531C35.654 25.6877 35.5399 25.4489 35.3648 25.2366C35.1896 25.019 34.9587 24.8465 34.6721 24.7191C34.3908 24.5864 34.0537 24.52 33.661 24.52C33.1355 24.52 32.6923 24.6315 32.3314 24.8544C31.9705 25.072 31.79 25.364 31.79 25.7302C31.79 26.0221 31.9068 26.2689 32.1403 26.4706C32.3738 26.6723 32.7746 26.8342 33.3425 26.9563L35.5558 27.4021C36.7448 27.6463 37.6312 28.0391 38.215 28.5805C38.7989 29.1218 39.0908 29.8331 39.0908 30.7142C39.0908 31.5156 38.8546 32.2189 38.3822 32.824C37.9151 33.4291 37.2729 33.9015 36.4555 34.2412C35.6434 34.5756 34.7066 34.7428 33.645 34.7428C32.0262 34.7428 30.7364 34.4057 29.7757 33.7316C28.8203 33.0522 28.2603 32.1287 28.0958 30.961L31.4317 30.7858C31.5326 31.2794 31.7767 31.6563 32.1642 31.9164C32.5517 32.1712 33.0479 32.2985 33.653 32.2985C34.2475 32.2985 34.7252 32.1844 35.0861 31.9562C35.4523 31.7226 35.6381 31.4228 35.6434 31.0565C35.6381 30.7487 35.5081 30.4966 35.2533 30.3002C34.9985 30.0985 34.6058 29.9445 34.075 29.8384L31.9572 29.4164C30.7629 29.1776 29.8739 28.7636 29.29 28.1744C28.7115 27.5853 28.4222 26.8342 28.4222 25.9213C28.4222 25.1357 28.6345 24.459 29.0592 23.8911C29.4891 23.3231 30.0915 22.8852 30.8664 22.5774C31.6467 22.2695 32.5596 22.1156 33.6052 22.1156C35.1498 22.1156 36.3653 22.442 37.2517 23.0949C38.1434 23.7478 38.6635 24.6368 38.8121 25.762ZM51.4015 25.762L48.2964 25.9531C48.2433 25.6877 48.1292 25.4489 47.9541 25.2366C47.7789 25.019 47.548 24.8465 47.2614 24.7191C46.9801 24.5864 46.6431 24.52 46.2503 24.52C45.7248 24.52 45.2816 24.6315 44.9207 24.8544C44.5598 25.072 44.3793 25.364 44.3793 25.7302C44.3793 26.0221 44.4961 26.2689 44.7296 26.4706C44.9632 26.6723 45.3639 26.8342 45.9318 26.9563L48.1452 27.4021C49.3341 27.6463 50.2205 28.0391 50.8043 28.5805C51.3882 29.1218 51.6801 29.8331 51.6801 30.7142C51.6801 31.5156 51.4439 32.2189 50.9715 32.824C50.5044 33.4291 49.8622 33.9015 49.0448 34.2412C48.2327 34.5756 47.2959 34.7428 46.2344 34.7428C44.6155 34.7428 43.3257 34.4057 42.365 33.7316C41.4096 33.0522 40.8497 32.1287 40.6851 30.961L44.021 30.7858C44.1219 31.2794 44.366 31.6563 44.7535 31.9164C45.141 32.1712 45.6372 32.2985 46.2423 32.2985C46.8368 32.2985 47.3145 32.1844 47.6754 31.9562C48.0417 31.7226 48.2274 31.4228 48.2327 31.0565C48.2274 30.7487 48.0974 30.4966 47.8426 30.3002C47.5878 30.0985 47.1951 29.9445 46.6643 29.8384L44.5465 29.4164C43.3523 29.1776 42.4632 28.7636 41.8794 28.1744C41.3008 27.5853 41.0115 26.8342 41.0115 25.9213C41.0115 25.1357 41.2238 24.459 41.6485 23.8911C42.0784 23.3231 42.6808 22.8852 43.4558 22.5774C44.236 22.2695 45.1489 22.1156 46.1946 22.1156C47.7391 22.1156 48.9546 22.442 49.841 23.0949C50.7327 23.7478 51.2528 24.6368 51.4015 25.762ZM61.658 29.297V22.2749H65.0497V34.5039H61.7934V32.2826H61.666C61.39 32.9992 60.9309 33.5751 60.2886 34.0103C59.6517 34.4455 58.8741 34.6631 57.9559 34.6631C57.1385 34.6631 56.4193 34.4774 55.7983 34.1058C55.1773 33.7343 54.6916 33.2062 54.3413 32.5215C53.9963 31.8368 53.8211 31.0167 53.8158 30.0613V22.2749H57.2075V29.4562C57.2128 30.1781 57.4065 30.7487 57.7887 31.168C58.1708 31.5873 58.683 31.797 59.3253 31.797C59.734 31.797 60.1161 31.7041 60.4717 31.5183C60.8274 31.3272 61.114 31.0459 61.3316 30.6744C61.5545 30.3028 61.6633 29.8437 61.658 29.297ZM73.3357 34.7428C72.0778 34.7428 70.995 34.488 70.0874 33.9784C69.1851 33.4636 68.4898 32.7364 68.0014 31.797C67.5131 30.8522 67.269 29.7349 67.269 28.4451C67.269 27.1872 67.5131 26.0832 68.0014 25.1331C68.4898 24.183 69.1771 23.4426 70.0635 22.9118C70.9552 22.381 72.0008 22.1156 73.2004 22.1156C74.0072 22.1156 74.7582 22.2457 75.4535 22.5057C76.1541 22.7605 76.7645 23.1453 77.2847 23.6602C77.8102 24.175 78.2189 24.8226 78.5108 25.6028C78.8027 26.3777 78.9487 27.2854 78.9487 28.3257V29.2572H68.6225V27.1553H75.7561C75.7561 26.667 75.6499 26.2344 75.4376 25.8576C75.2253 25.4807 74.9307 25.1862 74.5539 24.9738C74.1823 24.7562 73.7497 24.6474 73.2561 24.6474C72.7413 24.6474 72.2848 24.7668 71.8867 25.0057C71.4939 25.2392 71.1861 25.555 70.9632 25.9531C70.7402 26.3459 70.6261 26.7838 70.6208 27.2668V29.2652C70.6208 29.8702 70.7323 30.3931 70.9552 30.8336C71.1834 31.2741 71.5046 31.6138 71.9186 31.8527C72.3326 32.0915 72.8235 32.211 73.3915 32.211C73.7683 32.211 74.1133 32.1579 74.4265 32.0517C74.7396 31.9456 75.0077 31.7863 75.2306 31.574C75.4535 31.3617 75.6234 31.1016 75.7401 30.7938L78.877 31.0008C78.7178 31.7545 78.3914 32.4127 77.8977 32.9753C77.4094 33.5326 76.7778 33.9678 76.0029 34.281C75.2333 34.5888 74.3442 34.7428 73.3357 34.7428ZM86.4147 34.5039V18.1985H89.8621V31.6616H96.8524V34.5039H86.4147ZM99.0717 34.5039V22.2749H102.463V34.5039H99.0717ZM100.775 20.6985C100.271 20.6985 99.8386 20.5313 99.4777 20.1969C99.1221 19.8572 98.9443 19.4511 98.9443 18.9787C98.9443 18.5117 99.1221 18.1109 99.4777 17.7765C99.8386 17.4368 100.271 17.267 100.775 17.267C101.28 17.267 101.71 17.4368 102.065 17.7765C102.426 18.1109 102.607 18.5117 102.607 18.9787C102.607 19.4511 102.426 19.8572 102.065 20.1969C101.71 20.5313 101.28 20.6985 100.775 20.6985ZM115.355 25.762L112.25 25.9531C112.197 25.6877 112.083 25.4489 111.908 25.2366C111.733 25.019 111.502 24.8465 111.215 24.7191C110.934 24.5864 110.597 24.52 110.204 24.52C109.679 24.52 109.235 24.6315 108.874 24.8544C108.514 25.072 108.333 25.364 108.333 25.7302C108.333 26.0221 108.45 26.2689 108.683 26.4706C108.917 26.6723 109.318 26.8342 109.886 26.9563L112.099 27.4021C113.288 27.6463 114.174 28.0391 114.758 28.5805C115.342 29.1218 115.634 29.8331 115.634 30.7142C115.634 31.5156 115.398 32.2189 114.925 32.824C114.458 33.4291 113.816 33.9015 112.999 34.2412C112.186 34.5756 111.25 34.7428 110.188 34.7428C108.569 34.7428 107.279 34.4057 106.319 33.7316C105.363 33.0522 104.803 32.1287 104.639 30.961L107.975 30.7858C108.076 31.2794 108.32 31.6563 108.707 31.9164C109.095 32.1712 109.591 32.2985 110.196 32.2985C110.791 32.2985 111.268 32.1844 111.629 31.9562C111.995 31.7226 112.181 31.4228 112.186 31.0565C112.181 30.7487 112.051 30.4966 111.796 30.3002C111.542 30.0985 111.149 29.9445 110.618 29.8384L108.5 29.4164C107.306 29.1776 106.417 28.7636 105.833 28.1744C105.255 27.5853 104.965 26.8342 104.965 25.9213C104.965 25.1357 105.178 24.459 105.602 23.8911C106.032 23.3231 106.635 22.8852 107.409 22.5774C108.19 22.2695 109.103 22.1156 110.148 22.1156C111.693 22.1156 112.908 22.442 113.795 23.0949C114.686 23.7478 115.207 24.6368 115.355 25.762ZM124.274 22.2749V24.8226H116.91V22.2749H124.274ZM118.582 19.345H121.973V30.746C121.973 31.0592 122.021 31.3033 122.117 31.4785C122.212 31.6483 122.345 31.7678 122.515 31.8368C122.69 31.9058 122.892 31.9403 123.12 31.9403C123.279 31.9403 123.438 31.927 123.597 31.9005C123.757 31.8686 123.879 31.8447 123.964 31.8288L124.497 34.3526C124.327 34.4057 124.088 34.4668 123.781 34.5358C123.473 34.6101 123.099 34.6552 122.658 34.6711C121.841 34.7029 121.124 34.5941 120.508 34.3447C119.898 34.0952 119.423 33.7077 119.083 33.1823C118.744 32.6568 118.576 31.9933 118.582 31.1919V19.345Z" fill="#00324F"/>
<rect x="21" y="49.5039" width="441" height="12" fill="#86AAE1" fill-opacity="0.8"/>
<rect x="413" y="24.5039" width="49" height="12" fill="#17AF38" fill-opacity="0.8"/>
<rect x="21" y="68.5039" width="441" height="12" fill="#EEEEF4"/>
<rect x="21.4671" y="68.971" width="440.066" height="11.0658" stroke="#AEBFCB" stroke-opacity="0.52" stroke-width="0.934164"/>
<rect x="21" y="87.5039" width="441" height="12" fill="#EEEEF4"/>
<rect x="21.4671" y="87.971" width="440.066" height="11.0658" stroke="#AEBFCB" stroke-opacity="0.52" stroke-width="0.934164"/>
<rect x="21" y="106.504" width="441" height="12" fill="#EEEEF4"/>
<rect x="21.4671" y="106.971" width="440.066" height="11.0658" stroke="#AEBFCB" stroke-opacity="0.52" stroke-width="0.934164"/>
<rect x="21" y="125.504" width="441" height="12" fill="#EEEEF4"/>
<rect x="21.4671" y="125.971" width="440.066" height="11.0658" stroke="#AEBFCB" stroke-opacity="0.52" stroke-width="0.934164"/>
<rect x="21" y="144.504" width="441" height="12" fill="#EEEEF4"/>
<rect x="21.4671" y="144.971" width="440.066" height="11.0658" stroke="#AEBFCB" stroke-opacity="0.52" stroke-width="0.934164"/>
<rect x="21" y="163.504" width="441" height="12" fill="#EEEEF4"/>
<rect x="21.4671" y="163.971" width="440.066" height="11.0658" stroke="#AEBFCB" stroke-opacity="0.52" stroke-width="0.934164"/>
<rect x="21" y="182.504" width="441" height="12" fill="#EEEEF4"/>
<rect x="21.4671" y="182.971" width="440.066" height="11.0658" stroke="#AEBFCB" stroke-opacity="0.52" stroke-width="0.934164"/>
<rect x="21" y="201.504" width="441" height="12" fill="#EEEEF4"/>
<rect x="21.4671" y="201.971" width="440.066" height="11.0658" stroke="#AEBFCB" stroke-opacity="0.52" stroke-width="0.934164"/>
<rect x="21" y="220.504" width="441" height="12" fill="#EEEEF4"/>
<rect x="21.4671" y="220.971" width="440.066" height="11.0658" stroke="#AEBFCB" stroke-opacity="0.52" stroke-width="0.934164"/>
<rect x="21" y="239.504" width="441" height="12" fill="#EEEEF4"/>
<rect x="21.4671" y="239.971" width="440.066" height="11.0658" stroke="#AEBFCB" stroke-opacity="0.52" stroke-width="0.934164"/>
<rect x="21" y="258.504" width="441" height="12" fill="#EEEEF4"/>
<rect x="21.4671" y="258.971" width="440.066" height="11.0658" stroke="#AEBFCB" stroke-opacity="0.52" stroke-width="0.934164"/>
</svg>
