<?xml version="1.0" encoding="UTF-8"?>
<svg fill="none" viewBox="0 0 290 245" xmlns="http://www.w3.org/2000/svg">
<path d="m66.276 102.06c-4.5027 3.7-8.6759 7.13-15.452 9.906-4.5362 1.859-10.126 2.461-15.004 2.546-7.4826 0.132-15.759 0.753-20.565 6.491-2.7032 3.227-4.1968 6.972-5.0526 12.103-0.58649 3.516-0.0557 7.109 1.0833 10.487l6.5741 19.496c2.4623 7.303 7.4023 13.513 13.963 17.555 4.025 2.48 9.2568 1.653 12.322-1.946l1.0494-1.233c1.8864-2.215 2.8602-5.065 2.7242-7.972l-0.5346-11.421 10.256-6.659c4.507-2.926 9.668-4.691 15.023-5.139l10.873-0.908 6.7511 8.636c2.3718 3.034 6.0039 4.813 9.8548 4.827l2.901 0.01c4.006 0.014 7.517-2.676 8.545-6.548 1.606-6.054 1.3-12.456-0.877-18.328l-7.755-20.918c-1.352-3.646-3.3363-7.075-6.2294-9.674-3.7681-3.3848-7.3866-5.4925-12.314-6.591-6.4047-1.4279-12.938 1.0091-18.008 5.175l-0.1281 0.105z" stroke="#4C4EDC" stroke-width="5.2669"/>
<circle transform="rotate(-23.426 81.953 120.67)" cx="81.953" cy="120.67" r="7.0114" stroke="#4C4EDC" stroke-width="4.5235"/>
<path d="m52.594 131.42 10.024-3.604m-36.387 13.301 13.227-4.745m-8.9581-4.746 5.1045 14.057" stroke="#4C4EDC" stroke-linecap="round" stroke-width="4.5235"/>
<path d="m258.96 170.75c-5.809 0.47-11.193 0.906-18.342-0.68-4.786-1.061-9.721-3.755-13.776-6.468-6.221-4.161-13.373-8.372-20.592-6.401-4.062 1.108-7.425 3.332-11.055 7.058-2.488 2.553-4.101 5.807-5.093 9.231l-5.723 19.763c-2.144 7.402-1.629 15.321 1.453 22.384 1.892 4.332 6.66 6.638 11.23 5.43l1.566-0.413c2.813-0.744 5.238-2.529 6.785-4.994l6.076-9.685 12.222 0.382c5.371 0.168 10.617 1.662 15.27 4.35l9.449 5.457 0.618 10.944c0.217 3.845 2.185 7.378 5.34 9.586l2.377 1.664c3.282 2.297 7.7 2.09 10.753-0.504 4.773-4.055 8.174-9.488 9.736-15.553l5.564-21.604c0.97-3.766 1.296-7.714 0.403-11.499-1.164-4.93-2.933-8.725-6.354-12.438-4.445-4.827-11.202-6.553-17.742-6.023l-0.165 0.013z" stroke="#4C4EDC" stroke-width="5.2669"/>
<circle transform="rotate(11.358 261.23 194.98)" cx="261.23" cy="194.98" r="7.0114" stroke="#4C4EDC" stroke-width="4.5235"/>
<path d="m230.98 187.06 10.288 2.759m-37.473-9.834 13.57 3.648m-4.65-9.008-3.827 14.457" stroke="#4C4EDC" stroke-linecap="round" stroke-width="4.5235"/>
<path d="m47.17 92.275v-37.441c0-13.645 10.274-30.57 15.254-35.55 9.8333-9.8332 21.56-11.935 34.92-12.102 17.374-0.21718 32.091-0.96765 49.102 3.971 14.522 4.2162 30.249 6.2662 44.742 10.548 0 0 74.263 16.327 81.11 8.9537 7.336-7.9003-1.053-20.077-8.424-22.843-7.903-2.9651-12.643-5.6908-26.095-4.545-12.356 1.0534-21.31 12.133-19.225 28.812 1.331 10.646 7.307 22.381 12.417 31.579 9.138 16.448 15.884 31.824 15.884 50.677 0 8.433-1.359 17.972-5.168 25.591-1.564 3.127-3.908 6.59-3.908 10.211" stroke="#4C4EDC" stroke-linecap="round" stroke-width="5.2669"/>
</svg>