<?xml version="1.0" encoding="UTF-8"?>
<svg viewBox="0 0 302 84" xmlns="http://www.w3.org/2000/svg">
<path d="m119.91 60v-4.1016l18.644-26.74h-18.75v-5.522h26.917v4.1016l-18.625 26.74h18.732v5.5221h-26.918z"/>
<path d="m152.92 60v-27.273h6.428v27.273h-6.428zm3.232-31.144c-1.018 0-1.894-0.3374-2.628-1.0121-0.734-0.6865-1.101-1.5092-1.101-2.468 0-0.9707 0.367-1.7933 1.101-2.4681 0.734-0.6865 1.61-1.0298 2.628-1.0298 1.029 0 1.905 0.3433 2.627 1.0298 0.734 0.6748 1.101 1.4974 1.101 2.4681 0 0.9588-0.367 1.7815-1.101 2.468-0.722 0.6747-1.598 1.0121-2.627 1.0121z"/>
<path d="m165.96 60v-27.273h6.232v4.5455h0.284c0.498-1.5744 1.35-2.7877 2.557-3.6399 1.219-0.8641 2.61-1.2962 4.173-1.2962 0.355 0 0.752 0.0178 1.189 0.0533 0.45 0.0236 0.823 0.0651 1.119 0.1243v5.9126c-0.272-0.0947-0.704-0.1776-1.296-0.2486-0.58-0.0828-1.142-0.1243-1.687-0.1243-1.172 0-2.225 0.2545-3.16 0.7635-0.924 0.4972-1.652 1.1897-2.184 2.0774-0.533 0.8878-0.799 1.9117-0.799 3.0718v16.033h-6.428z"/>
<path d="m191.64 51.442-0.018-7.7592h1.03l9.801-10.955h7.511l-12.057 13.423h-1.331l-4.936 5.2912zm-5.86 8.5583v-36.364h6.428v36.364h-6.428zm17.117 0-8.878-12.411 4.332-4.5277 12.234 16.939h-7.688z"/>
<path d="m231.63 48.53v-15.803h6.428v27.273h-6.233v-4.8473h-0.284c-0.615 1.5269-1.627 2.7758-3.036 3.7464-1.397 0.9706-3.119 1.456-5.167 1.456-1.787 0-3.368-0.3966-4.741-1.1897-1.361-0.8049-2.426-1.9708-3.196-3.4978-0.769-1.5389-1.154-3.3973-1.154-5.5753v-17.365h6.428v16.371c0 1.7282 0.473 3.1013 1.42 4.1193s2.19 1.527 3.729 1.527c0.947 0 1.864-0.2308 2.752-0.6925 0.888-0.4616 1.616-1.1482 2.184-2.0597 0.58-0.9233 0.87-2.0774 0.87-3.4623z"/>
<path d="m251.1 23.637v36.364h-6.428v-36.364h6.428z"/>
<path d="m265.55 60.551c-1.728 0-3.285-0.3078-4.67-0.9233-1.373-0.6274-2.462-1.5507-3.267-2.7699-0.793-1.2192-1.189-2.7225-1.189-4.5099 0-1.5389 0.284-2.8114 0.852-3.8175 0.568-1.0062 1.344-1.8111 2.326-2.4148 0.983-0.6037 2.089-1.0594 3.32-1.3672 1.243-0.3196 2.528-0.5504 3.853-0.6924 1.598-0.1658 2.894-0.3137 3.889-0.4439 0.994-0.1421 1.716-0.3552 2.166-0.6392 0.462-0.296 0.692-0.7517 0.692-1.3672v-0.1066c0-1.3376-0.396-2.3733-1.189-3.1072s-1.936-1.1009-3.427-1.1009c-1.574 0-2.823 0.3433-3.746 1.0299-0.912 0.6865-1.527 1.4974-1.847 2.4325l-6.001-0.8523c0.473-1.6572 1.254-3.0421 2.343-4.1548 1.089-1.1245 2.421-1.965 3.995-2.5213 1.575-0.5682 3.315-0.8523 5.22-0.8523 1.314 0 2.622 0.1539 3.925 0.4617 1.302 0.3077 2.491 0.8167 3.568 1.5269 1.078 0.6984 1.942 1.6513 2.593 2.8587 0.663 1.2074 0.994 2.7166 0.994 4.5277v18.253h-6.179v-3.7465h-0.213c-0.391 0.7576-0.941 1.4678-1.651 2.1307-0.699 0.651-1.581 1.1778-2.646 1.5802-1.053 0.3907-2.29 0.586-3.711 0.586zm1.669-4.723c1.29 0 2.409-0.2545 3.356-0.7635 0.947-0.5209 1.675-1.2074 2.184-2.0597 0.521-0.8523 0.781-1.7815 0.781-2.7876v-3.2138c-0.201 0.1657-0.544 0.3196-1.03 0.4616-0.473 0.1421-1.006 0.2664-1.598 0.3729-0.591 0.1065-1.177 0.2012-1.757 0.2841s-1.084 0.1539-1.51 0.2131c-0.958 0.1302-1.817 0.3432-2.574 0.6392-0.758 0.2959-1.356 0.7102-1.794 1.2429-0.438 0.5208-0.657 1.1955-0.657 2.0241 0 1.1837 0.433 2.0774 1.297 2.6811s1.965 0.9056 3.302 0.9056z"/>
<path d="m286.42 60v-27.273h6.232v4.5455h0.284c0.498-1.5744 1.35-2.7877 2.557-3.6399 1.219-0.8641 2.61-1.2962 4.173-1.2962 0.355 0 0.751 0.0178 1.189 0.0533 0.45 0.0236 0.823 0.0651 1.119 0.1243v5.9126c-0.272-0.0947-0.704-0.1776-1.296-0.2486-0.58-0.0828-1.142-0.1243-1.687-0.1243-1.172 0-2.225 0.2545-3.16 0.7635-0.924 0.4972-1.652 1.1897-2.184 2.0774-0.533 0.8878-0.799 1.9117-0.799 3.0718v16.033h-6.428z"/>
<path d="m43.96 38.978c-7.8156 10.757-19.841 18.258-33.657 20.083-2.7473-5.0826-4.307-10.901-4.307-17.084 0-19.871 16.109-35.98 35.98-35.98l21.633-3e-4c-6.3176-3.8066-13.72-5.9964-21.633-5.9964-23.183 1.0134e-6 -41.977 18.794-41.977 41.977 2.9742e-7 6.8041 1.6189 13.23 4.4925 18.914 6.9173 13.682 21.105 23.063 37.484 23.063 8.8515 0 17.063-2.7396 23.833-7.4173 10.989-7.5845 18.19-20.265 18.19-34.627 0-0.9852-0.0339-1.9625-0.1006-2.9309h-39.939z"/>
<path d="m47.697 32.981h35.353c-0.5613-2.596-1.3623-5.1027-2.3788-7.4958h-29.774c-0.8644 2.6007-1.9378 5.1059-3.2005 7.4958z"/>
<path d="m52.48 19.489h25.05c-1.7217-2.7262-3.7482-5.2407-6.0316-7.4958h-18.122c-0.1107 2.5533-0.4142 5.0567-0.8961 7.4958z"/>
</svg>