<svg width="18" height="18" viewBox="0 0 18 18" fill="none" xmlns="http://www.w3.org/2000/svg">
<path d="M14.5661 15.4339C14.8057 15.6735 15.1943 15.6735 15.4339 15.4339C15.6735 15.1943 15.6735 14.8057 15.4339 14.5661L14.5661 15.4339ZM6 6L7.8339 12.8442L12.8442 7.8339L6 6ZM15.4339 14.5661L10.3391 9.47125L9.47125 10.3391L14.5661 15.4339L15.4339 14.5661Z" fill="#475569"/>
<path fill-rule="evenodd" clip-rule="evenodd" d="M2 1.5H16C16.2761 1.5 16.5 1.72386 16.5 2V8.25C16.5 8.66421 16.8358 9 17.25 9V9C17.6642 9 18 8.66421 18 8.25V2C18 0.895431 17.1046 0 16 0H2C0.895431 0 0 0.89543 0 2V16C0 17.1046 0.89543 18 2 18H8.25C8.66421 18 9 17.6642 9 17.25V17.25C9 16.8358 8.66421 16.5 8.25 16.5H2C1.72386 16.5 1.5 16.2761 1.5 16V2C1.5 1.72386 1.72386 1.5 2 1.5Z" fill="#475569"/>
</svg>
