<svg width="24" height="24" viewBox="0 0 24 24" fill="none" xmlns="http://www.w3.org/2000/svg">
<g clip-path="url(#clip0_1486_7162)">
<path fill-rule="evenodd" clip-rule="evenodd" d="M4.1967 4.1967C5.60322 2.79018 7.51088 2 9.5 2C11.4891 2 13.3968 2.79018 14.8033 4.1967C16.2098 5.60322 17 7.51088 17 9.5C17 9.77667 16.9847 10.0526 16.9543 10.3265L18.989 9.95654C18.9963 9.80463 19 9.65241 19 9.5C19 6.98044 17.9991 4.56408 16.2175 2.78249C14.4359 1.00089 12.0196 0 9.5 0C6.98044 0 4.56408 1.00089 2.78249 2.78249C1.00089 4.56408 0 6.98044 0 9.5C0 10.7476 0.245725 11.9829 0.723144 13.1355C1.20056 14.2881 1.90033 15.3354 2.78249 16.2175C3.66464 17.0997 4.71191 17.7994 5.86451 18.2769C7.0171 18.7543 8.25244 19 9.5 19C10.0035 19 10.5051 18.96 11 18.8808V16.8485C10.5075 16.949 10.005 17 9.5 17C8.51509 17 7.53982 16.806 6.62987 16.4291C5.71993 16.0522 4.89314 15.4997 4.1967 14.8033C3.50026 14.1069 2.94781 13.2801 2.5709 12.3701C2.19399 11.4602 2 10.4849 2 9.5C2 7.51088 2.79018 5.60322 4.1967 4.1967ZM6.66667 6.61111C6.11438 6.61111 5.66667 7.05883 5.66667 7.61111C5.66667 8.1634 6.11438 8.61111 6.66667 8.61111H6.67611C7.2284 8.61111 7.67611 8.1634 7.67611 7.61111C7.67611 7.05883 7.2284 6.61111 6.67611 6.61111H6.66667ZM12.3333 6.61111C11.781 6.61111 11.3333 7.05883 11.3333 7.61111C11.3333 8.1634 11.781 8.61111 12.3333 8.61111H12.3428C12.8951 8.61111 13.3428 8.1634 13.3428 7.61111C13.3428 7.05883 12.8951 6.61111 12.3428 6.61111H12.3333ZM7.53611 11.4637C7.14553 11.0732 6.51236 11.0733 6.1219 11.4639C5.73143 11.8545 5.73153 12.4876 6.12211 12.8781C7.01808 13.7738 8.2331 14.277 9.5 14.277C10.7669 14.277 11.9819 13.7738 12.8779 12.8781C13.2685 12.4876 13.2686 11.8545 12.8781 11.4639C12.4876 11.0733 11.8545 11.0732 11.4639 11.4637C10.943 11.9844 10.2366 12.277 9.5 12.277C8.76343 12.277 8.05702 11.9844 7.53611 11.4637Z" fill="#64748B"/>
<path d="M13 17C12.4477 17 12 17.4477 12 18C12 18.5523 12.4477 19 13 19V17ZM23 19C23.5523 19 24 18.5523 24 18C24 17.4477 23.5523 17 23 17V19ZM19 13C19 12.4477 18.5523 12 18 12C17.4477 12 17 12.4477 17 13H19ZM17 23C17 23.5523 17.4477 24 18 24C18.5523 24 19 23.5523 19 23H17ZM13 19H18V17H13V19ZM18 19H23V17H18V19ZM19 18V13H17V18H19ZM17 13V23H19V13H17Z" fill="#64748B"/>
</g>
<defs>
<clipPath id="clip0_1486_7162">
<rect width="24" height="24" fill="white"/>
</clipPath>
</defs>
</svg>
