<svg width="30" height="30" viewBox="0 0 30 30" fill="none" xmlns="http://www.w3.org/2000/svg">
<path d="M19.95 15L20.9682 16.0182C21.5306 15.4559 21.5306 14.5441 20.9682 13.9818L19.95 15ZM9.76667 13.56C8.97138 13.56 8.32667 14.2047 8.32667 15C8.32667 15.7953 8.97138 16.44 9.76667 16.44V13.56ZM14.2651 18.6484C13.7027 19.2108 13.7027 20.1225 14.2651 20.6849C14.8275 21.2473 15.7392 21.2473 16.3016 20.6849L14.2651 18.6484ZM16.3016 9.3151C15.7392 8.75274 14.8275 8.75274 14.2651 9.3151C13.7027 9.87745 13.7027 10.7892 14.2651 11.3516L16.3016 9.3151ZM19.95 13.56H9.76667V16.44H19.95V13.56ZM16.3016 20.6849L20.9682 16.0182L18.9318 13.9818L14.2651 18.6484L16.3016 20.6849ZM20.9682 13.9818L16.3016 9.3151L14.2651 11.3516L18.9318 16.0182L20.9682 13.9818ZM26.31 15C26.31 21.2463 21.2463 26.31 15 26.31V29.19C22.8369 29.19 29.19 22.8369 29.19 15H26.31ZM15 26.31C8.75366 26.31 3.69 21.2463 3.69 15H0.81C0.81 22.8369 7.16308 29.19 15 29.19V26.31ZM3.69 15C3.69 8.75366 8.75366 3.69 15 3.69V0.81C7.16308 0.81 0.81 7.16308 0.81 15H3.69ZM15 3.69C21.2463 3.69 26.31 8.75366 26.31 15H29.19C29.19 7.16308 22.8369 0.81 15 0.81V3.69Z" fill="white"/>
</svg>
