<svg width="24" height="25" viewBox="0 0 24 25" fill="none" xmlns="http://www.w3.org/2000/svg">
<path d="M22.6405 3.96644C21.9846 5.0733 21.3287 6.15966 20.6728 7.22552C20.0169 8.29139 19.2994 9.52123 18.5205 10.9151C17.7826 12.2679 16.9217 13.8462 15.9379 15.6499C14.954 17.4537 13.8061 19.6469 12.4943 22.2296C12.1664 22.8445 11.8384 23.3365 11.5104 23.7054C11.1825 24.0744 10.793 24.2588 10.3421 24.2588C9.72717 24.2588 9.23523 24.0949 8.86628 23.7669C8.53832 23.398 8.25135 23.0085 8.00539 22.5986C6.65256 20.3438 5.32023 17.8432 4.0084 15.0965C2.69656 12.3499 1.6307 9.66471 0.810804 7.04105C0.728814 6.83607 0.728814 6.6106 0.810804 6.36463C0.933788 6.07767 1.09777 5.89319 1.30274 5.8112C1.71269 5.60623 2.24562 5.58573 2.90154 5.74971C3.39347 5.95469 3.88541 6.32364 4.37735 6.85657C4.86929 7.3895 5.25874 7.94293 5.5457 8.51686C5.79167 9.09079 6.07863 9.7467 6.40659 10.4846C6.73455 11.2225 7.083 12.0219 7.45196 12.8828C7.8619 13.7027 8.27185 14.5226 8.6818 15.3425C9.09175 16.1624 9.50169 16.9003 9.91164 17.5562C10.6086 16.3264 11.3465 15.0145 12.1254 13.6207C12.9453 12.1859 13.7652 10.7511 14.585 9.31626C15.4049 7.84045 16.2248 6.42613 17.0447 5.0733C17.9056 3.72047 18.746 2.51112 19.5659 1.44526C19.7709 1.1583 20.0578 0.994319 20.4268 0.953325C20.7958 0.912328 21.2057 1.05581 21.6566 1.38377C22.6815 2.16267 23.0095 3.02356 22.6405 3.96644Z" fill="#4C4EDC"/>
</svg>
