<svg viewBox="0 0 156 42" fill="none" xmlns="http://www.w3.org/2000/svg">
<path d="M75.62 7.75H68.8344L68.8456 20.446C68.8456 24.1563 67.255 27.1581 63.5446 27.1581C59.8327 27.1581 58.2275 24.1563 58.2275 20.446V7.762H51.4596L51.4577 20.446C51.4577 27.7778 56.1706 33.72 63.5037 33.72C70.8346 33.72 75.6177 27.7776 75.6177 20.446L75.62 7.75Z" fill="#737373"/>
<path d="M143.56 0.0139999H136.808V33.065H143.56V0.0139999Z" fill="#737373"/>
<path d="M148.54 0.637V0.0431004H151.171V0.6367H150.209V3.2534H149.503V0.637H148.54Z" fill="#737373"/>
<path d="M152.54 0.0430002L153.291 2.2505H153.3L154.01 0.0430002H155.004V3.2533H154.344V0.9779H154.335L153.548 3.2533H153.003L152.217 1.0006H152.208V3.2533H151.547V0.0430002H152.54Z" fill="#737373"/>
<path d="M45.939 7.474C40.1187 6.1308 36.4471 11.9129 36.2946 12.2229C36.2195 12.3751 36.2168 12.4638 35.9588 12.457C35.7459 12.4526 35.7214 12.2229 35.7214 12.2229L34.9991 7.7999H28.951V33.0429H35.731V19.3789C35.731 18.2623 38.738 12.9086 44.5635 14.2868C47.5097 14.9837 48.7594 16.2339 48.7594 16.2339V8.5441C47.6691 7.9755 46.9211 7.7007 45.939 7.474Z" fill="#737373"/>
<path d="M84.821 41.358V32.275C84.8216 32.275 84.8225 32.2759 84.8231 32.2765L84.8241 28.8752C84.8241 28.8752 84.8349 28.603 85.0801 28.5996C85.299 28.5971 85.3477 28.7422 85.401 28.8752C85.915 30.1542 88.7425 35.0278 95.0166 33.4991C100.633 31.9169 104.753 26.7594 104.753 20.6341C104.753 13.2546 98.7688 7.2701 91.3869 7.2701C84.005 7.2701 78.0219 13.255 78.0219 20.6341V41.3581L84.821 41.358ZM91.393 13.871C95.13 13.871 98.1587 16.9003 98.1587 20.6346C98.1587 24.3719 95.13 27.4015 91.393 27.4015C87.6565 27.4015 84.6288 24.3722 84.6288 20.6346C84.6291 16.9003 87.6569 13.871 91.393 13.871Z" fill="#737373"/>
<path d="M127.27 33.054H134.068V20.634C134.068 13.2545 128.085 7.27 120.704 7.27C113.322 7.27 107.338 13.2549 107.338 20.634C107.338 26.759 111.458 31.916 117.074 33.499C123.349 35.0276 126.175 30.1541 126.69 28.8751C126.743 28.7421 126.791 28.5973 127.011 28.5995C127.256 28.6029 127.266 28.8751 127.266 28.8751M127.462 20.634C127.462 24.3714 124.433 27.401 120.698 27.401C116.961 27.401 113.932 24.3717 113.932 20.634C113.932 16.8998 116.961 13.8705 120.698 13.8705C124.434 13.8705 127.462 16.8998 127.462 20.634Z" fill="#737373"/>
<path d="M7.7125 33.002H0V0H8.2754C18.2964 0 25.8964 1.8386 25.8964 16.501C25.8964 31.021 17.8461 33.002 7.7125 33.002ZM9.5539 5.721H6.8275V27.276L9.6274 27.3476C15.3692 27.3476 19.0675 26.8249 19.0675 16.5006C19.0675 6.6001 15.8026 5.721 9.5539 5.721Z" fill="#737373"/>
</svg>
