<?xml version="1.0" encoding="UTF-8"?>
<svg fill="none" viewBox="0 0 70 65" xmlns="http://www.w3.org/2000/svg">
<g clip-path="url(#a)">
<path d="m59 44.319c0.2957-0.1699 0.5416-0.4145 0.713-0.7094 0.1713-0.2948 0.2621-0.6296 0.2632-0.9706l0.035-11.253c1e-3 -0.3411 0.0917-0.6759 0.2631-0.9708 0.1713-0.295 0.4172-0.5396 0.713-0.7095l6.0999-3.5038c0.2956-0.1698 0.6307-0.2589 0.9716-0.2584 0.3409 6e-4 0.6757 0.0907 0.9708 0.2615s0.5401 0.4161 0.7104 0.7115c0.1704 0.2953 0.26 0.6302 0.2601 0.9711v20.458c0 0.3421-0.0903 0.6781-0.2617 0.9741s-0.4178 0.5416-0.7145 0.7119l-23.021 13.223c-0.2941 0.1689-0.6272 0.2579-0.9663 0.2583-0.3391 3e-4 -0.6725-0.0881-0.9669-0.2564l-18.066-10.333c-0.2976-0.1699-0.5451-0.4155-0.7172-0.7119-0.1722-0.2964-0.2629-0.633-0.2631-0.9757v-10.316c0-0.0115 0.0137-0.0192 0.0255-0.0137 0.0095 6e-3 0.0232 0 0.0232-0.0137v-0.0115c0-0.0076 0.0038-0.0155 0.0118-0.0194l14.879-8.5479c0.0137-0.0079 0.0077-0.0293-0.0079-0.0293-0.0041 0-0.0081-0.0016-0.011-0.0045s-0.0046-0.0069-0.0046-0.011l0.0293-10.113c0.0014-0.342-0.0875-0.6783-0.2576-0.975s-0.4154-0.5433-0.7113-0.7149c-0.2958-0.1716-0.6317-0.2621-0.9737-0.2625-0.342-3e-4 -0.678 0.0896-0.9742 0.2606l-11.058 6.3725c-0.2952 0.1699-0.6298 0.2594-0.9703 0.2594-0.3406 0-0.6752-0.0895-0.9703-0.2594l-11.093-6.3875c-0.2955-0.1702-0.6306-0.2597-0.9717-0.2595-0.341 2e-4 -0.676 0.0902-0.9713 0.2608s-0.5406 0.4158-0.7112 0.7112c-0.1705 0.2953-0.2604 0.6303-0.2606 0.9713v18.278c2e-4 0.3407-0.08903 0.6755-0.25886 0.9708s-0.41428 0.5409-0.70885 0.712c-0.29458 0.1711-0.62895 0.2618-0.96962 0.2631-0.34068 0.0012-0.6757-0.0871-0.97152-0.256l-6.1564-3.5203c-0.29811-0.1702-0.54583-0.4164-0.71796-0.7135-0.17213-0.297-0.26254-0.6344-0.26204-0.9777l0.054687-31.948c8.723e-4 -0.34048 0.091134-0.67476 0.26175-0.9694 0.17062-0.29465 0.41562-0.53932 0.71049-0.70955 0.29487-0.17024 0.62927-0.26006 0.96975-0.26048s0.6751 0.08856 0.97039 0.25806l21.088 12.112c0.2947 0.1692 0.6286 0.2583 0.9684 0.2583s0.6737-0.0891 0.9683-0.2583l21.082-12.112c0.2957-0.1699 0.631-0.25901 0.9721-0.25838s0.676 0.09098 0.9711 0.26197c0.2952 0.171 0.5401 0.41662 0.7103 0.71221 0.1702 0.2956 0.2597 0.63076 0.2594 0.97185v31.956c2e-4 0.3418-0.0897 0.6777-0.2607 0.9737s-0.417 0.5417-0.7133 0.7123l-11.041 6.3585c-0.2966 0.1709-0.5428 0.4171-0.7137 0.7137-0.171 0.2966-0.2606 0.633-0.2598 0.9753s0.0919 0.6784 0.2642 0.9742 0.4196 0.5409 0.7169 0.7105l6.0903 3.4671c0.2943 0.1676 0.6273 0.2553 0.9659 0.2546 0.3387-8e-4 0.6712-0.0899 0.9648-0.2587l12.999-7.4648-3e-4 3e-4zm1.2775-28.666c2e-4 0.3439 0.0917 0.6815 0.265 0.9786 0.1734 0.297 0.4224 0.5427 0.7216 0.7121 0.2993 0.1694 0.6382 0.2564 0.9821 0.2521 0.3438-0.0043 0.6804-0.0997 0.9754-0.2765l5.8335-3.5c0.288-0.1726 0.5263-0.4167 0.6919-0.7087s0.2528-0.622 0.2531-0.9576v-7.1327c-6e-4 -0.34373-0.0923-0.68117-0.2658-0.97793-0.1734-0.29675-0.4225-0.54222-0.7217-0.71138-0.2992-0.16917-0.638-0.25599-0.9817-0.25161-0.3437 0.00437-0.6801 0.09978-0.9749 0.27651l-5.8332 3.5c-0.2881 0.17254-0.5266 0.41672-0.6922 0.70879-0.1657 0.29206-0.2529 0.62204-0.2531 0.95781v7.1324-0.0019z" fill="#94A0B7"/>
</g>
<defs>
<clipPath id="a">
<rect transform="translate(0 3)" width="70" height="60.703" fill="#fff"/>
</clipPath>
</defs>
</svg>
