<?xml version="1.0" encoding="UTF-8"?>
<svg fill="none" viewBox="0 0 118 65" xmlns="http://www.w3.org/2000/svg">
<g clip-path="url(#a)">
<path d="m67.42 14.064 0.2591 0.1728c3.0449 2.0108 5.2281 4.7686 6.6644 8.101 0.3448 0.5169 0.115 0.8043-0.5745 0.9765l-1.1669 0.2987c-2.6382 0.6796-4.7315 1.2512-7.3351 1.9308l-1.485 0.3868c-0.5346 0.1322-0.6821 0.0767-1.2509-0.5709l-0.0802-0.092c-0.8111-0.9191-1.4186-1.533-2.493-2.0811l-0.2072-0.1021c-3.6195-1.7808-7.124-1.2639-10.399 0.862-3.9069 2.5277-5.9177 6.2623-5.8603 10.916 0.0576 4.596 3.2173 8.3879 7.7562 9.0198 3.9067 0.5172 7.1814-0.8617 9.7668-3.7916 0.5172-0.6322 0.9767-1.3215 1.551-2.1259h-11.088c-1.2065 0-1.4937-0.7467-1.0915-1.7234l0.1991-0.469c0.7384-1.7179 1.8836-4.1872 2.6274-5.599l0.1622-0.304c0.1987-0.3444 0.602-0.8097 1.3775-0.8097h18.489c0.8304-2.6308 2.1777-5.1166 3.9747-7.4688 4.1941-5.5153 9.2499-8.3881 16.087-9.5944 5.8601-1.0343 11.375-0.4598 16.374 2.93 4.538 3.1023 7.354 7.2966 8.101 12.812 0.976 7.7562-1.265 14.076-6.607 19.476-3.792 3.8493-8.446 6.2623-13.789 7.3538-1.5511 0.2874-3.1023 0.3448-4.596 0.5171-5.2282-0.115-9.9968-1.6086-14.018-5.0557-2.8286-2.4453-4.7769-5.4502-5.7451-8.9487-0.6794 1.371-1.4874 2.6743-2.413 3.8926-4.1367 5.4582-9.5371 8.8477-16.374 9.7673-5.6304 0.7467-10.859-0.345-15.455-3.7921-4.2515-3.2174-6.6645-7.4688-7.2966-12.754-0.7468-6.2625 1.0917-11.893 4.8836-16.834 4.0793-5.3432 9.4796-8.7327 16.087-9.9392 5.3006-0.9588 10.38-0.3676 14.966 2.6421h-2e-4zm27.331 8.2328-0.1839 0.041c-5.343 1.2065-8.7901 4.596-10.054 9.9966-1.0343 4.4812 1.1489 9.02 5.2856 10.858 3.1597 1.3789 6.3197 1.2065 9.3646-0.3448 4.5384-2.3554 7.0094-6.0325 7.2964-10.973-0.057-0.7467-0.057-1.3215-0.172-1.8961-1.023-5.6236-6.146-8.8324-11.537-7.6819zm-67.92 10.497c0.2298 0 0.3448 0.1724 0.3448 0.4022l-0.115 1.3789c0 0.2298-0.2298 0.4021-0.4022 0.4021l-12.524-0.0573c-0.2298 0-0.2872-0.1724-0.1724-0.3448l0.8043-1.4363c0.115-0.1724 0.3448-0.3448 0.5746-0.3448h11.49zm1.2639-5.2856c0.2298 0 0.3448 0.1724 0.2874 0.3448l-0.4598 1.3789c-0.0573 0.2298-0.2871 0.3446-0.5169 0.3446l-27.175 0.0576c-0.22978 0-0.28716-0.115-0.17239-0.2874l1.2065-1.5511c0.11501-0.1723 0.40217-0.2874 0.63195-0.2874h26.198zm2.9876-5.2855c0.2298 0 0.2872 0.1724 0.1724 0.3448l-0.9767 1.4936c-0.115 0.1724-0.4022 0.3448-0.5746 0.3448l-20.798-0.0576c-0.23001 0-0.28739-0.1148-0.17262-0.2872l1.2065-1.551c0.11501-0.1724 0.40221-0.2874 0.63191-0.2874h20.511z" fill="#94A0B7"/>
</g>
<defs>
<clipPath id="a">
<rect transform="translate(0 11)" width="118" height="44.25" fill="#fff"/>
</clipPath>
</defs>
</svg>
