<svg width="126" height="28" viewBox="0 0 126 28" fill="none" xmlns="http://www.w3.org/2000/svg">
<g clip-path="url(#clip0_2232_7224)">
<path fill-rule="evenodd" clip-rule="evenodd" d="M15.9631 7.42467C16.0825 7.39317 16.137 7.43867 16.2078 7.52267C16.6137 8.008 17.9218 9.69967 18.2778 10.1628C18.2908 10.1792 18.3003 10.1981 18.3058 10.2183C18.3113 10.2386 18.3126 10.2597 18.3097 10.2805C18.3067 10.3012 18.2996 10.3211 18.2888 10.339C18.2779 10.3569 18.2635 10.3724 18.2465 10.3845C15.6094 12.5697 12.6754 15.6602 11.0402 17.8745C11.0054 17.9212 11.0344 17.9247 11.0576 17.9142C13.9058 16.6122 20.5949 14.5343 23.6124 13.9522V9.89917L11.8184 0L0 9.89917V14.329C3.66345 12.0178 12.1268 8.43967 15.9619 7.42467H15.9631ZM70.7931 1.37783H75.9827V27.4318H70.7931V1.37783ZM66.9487 1.37783H61.7591V27.433H66.9487V1.37783ZM101.407 10.3845H96.2795L101.471 27.4353H106.246L107.549 23.1245C108.067 21.4118 108.929 18.214 108.929 18.214C108.931 18.2054 108.936 18.1977 108.943 18.1922C108.95 18.1867 108.959 18.1837 108.968 18.1837C108.985 18.1837 109 18.1953 109.006 18.214C109.006 18.214 109.87 21.4737 110.36 23.1537L111.64 27.4318H116.329L121.484 10.3833H116.719L115.232 15.5412C114.778 17.1761 114.337 18.8145 113.909 20.4563C113.907 20.465 113.902 20.4727 113.895 20.4782C113.888 20.4837 113.88 20.4867 113.871 20.4867C113.862 20.4867 113.853 20.4837 113.846 20.4782C113.84 20.4727 113.835 20.465 113.833 20.4563C113.833 20.4563 113.032 17.3087 112.514 15.5412L110.983 10.3845H107.196L105.637 15.5412C105.149 17.1908 104.292 20.4587 104.292 20.4587C104.289 20.4667 104.284 20.4736 104.277 20.4784C104.27 20.4832 104.262 20.4857 104.254 20.4855C104.245 20.4855 104.237 20.4829 104.231 20.478C104.224 20.4732 104.219 20.4665 104.216 20.4587C104.216 20.4587 103.388 17.2503 102.892 15.5412L101.407 10.3845ZM78.5514 18.9665C78.5514 13.7865 82.4862 9.94933 87.3001 9.94933C92.0664 9.94933 96.0024 13.7877 96.0024 18.9665C96.0024 24.1617 92.0687 28 87.3001 28C82.4874 28 78.5514 24.1617 78.5514 18.97V18.9665ZM91.0227 18.9665C91.0227 16.4302 89.3179 14.7035 87.3001 14.7035C85.2347 14.7035 83.5311 16.4302 83.5311 18.9665C83.5311 21.5203 85.2347 23.2295 87.3001 23.2295C89.3179 23.2295 91.0227 21.5203 91.0227 18.9665ZM31.7395 3.78817V8.81183H40.9114C40.9485 8.81183 40.9625 8.84917 40.9439 8.88183L31.736 25.4975L31.7198 25.5278C31.511 25.9338 31.4611 26.0318 31.4611 26.453V27.433H49.3273V22.4187H39.4027C39.3948 22.4186 39.3871 22.4163 39.3805 22.412C39.3739 22.4076 39.3687 22.4014 39.3656 22.3942C39.3621 22.3867 39.3606 22.3784 39.3615 22.3702C39.3623 22.362 39.3653 22.3541 39.3702 22.3475L48.6848 5.51367L48.7103 5.46C48.7753 5.32 48.8379 5.18933 48.8379 4.83933L48.8402 3.78933H31.7395V3.78817ZM55.2266 1.8445C56.8444 1.8445 58.1815 3.2305 58.1815 4.93733C58.1815 6.64533 56.8444 8.03367 55.2266 8.03367C53.6089 8.03367 52.2729 6.64767 52.2729 4.93967C52.2729 3.23167 53.6089 1.84567 55.2266 1.84567V1.8445ZM52.6324 10.3845H57.8208V27.433H52.6324V10.3845ZM6.11271 24.409C6.17649 24.4883 6.28666 24.5047 6.36784 24.4487C10.7491 22.0523 20.3873 19.0108 23.6124 18.4287V27.5357H0.00115967V18.074C2.42838 16.6157 8.98526 13.6243 11.293 12.824C11.3394 12.8077 11.3499 12.8357 11.3104 12.8672C9.09543 14.6137 5.62332 18.7355 3.92206 21.385C3.84436 21.5087 3.849 21.5483 3.91046 21.6242L6.11271 24.409ZM124.175 7.12133C124.623 7.12133 124.944 7.46433 124.944 7.95433C124.944 8.32533 124.754 8.61817 124.467 8.73367L124.909 9.50367H124.489L124.078 8.78733H123.717V9.50133H123.348V7.12133H124.175ZM123.717 8.43733H124.151C124.396 8.43733 124.576 8.23667 124.576 7.95783C124.576 7.67783 124.396 7.47367 124.153 7.47367H123.717V8.43733ZM124.063 6.29533C123.279 6.29533 122.573 6.797 122.274 7.56467C122.127 7.94002 122.088 8.34966 122.162 8.74625C122.236 9.14284 122.421 9.51018 122.694 9.80583C122.956 10.0912 123.3 10.2874 123.678 10.3673C124.057 10.4471 124.45 10.4067 124.804 10.2515C125.528 9.933 126 9.18283 126 8.351C125.999 7.21583 125.133 6.2965 124.063 6.29533V6.29533ZM124.063 10.0123C123.43 10.0123 122.86 9.6075 122.617 8.98683C122.498 8.6836 122.467 8.35272 122.527 8.03234C122.587 7.71197 122.735 7.41516 122.956 7.17617C123.403 6.70017 124.077 6.55783 124.662 6.81567C125.246 7.07233 125.628 7.679 125.628 8.351C125.627 9.268 124.927 10.0112 124.063 10.0123Z" fill="#737373"/>
</g>
<defs>
<clipPath id="clip0_2232_7224">
<rect width="126" height="28" fill="white"/>
</clipPath>
</defs>
</svg>
