<svg width="70" height="61" viewBox="0 0 70 61" fill="none" xmlns="http://www.w3.org/2000/svg">
<path d="M58.9998 41.3175C59.2955 41.1476 59.5414 40.903 59.7128 40.6081C59.8841 40.3133 59.9749 39.9785 59.976 39.6375L60.011 28.3845C60.012 28.0434 60.1027 27.7086 60.2741 27.4137C60.4454 27.1187 60.6913 26.8741 60.9871 26.7042L67.087 23.2004C67.3826 23.0306 67.7177 22.9415 68.0586 22.942C68.3995 22.9426 68.7343 23.0327 69.0294 23.2035C69.3245 23.3743 69.5695 23.6196 69.7398 23.915C69.9102 24.2103 69.9998 24.5452 69.9999 24.8861V45.3441C69.9999 45.6862 69.9096 46.0222 69.7382 46.3182C69.5668 46.6142 69.3204 46.8598 69.0237 47.0301L46.0027 60.2531C45.7086 60.422 45.3755 60.511 45.0364 60.5114C44.6973 60.5117 44.3639 60.4233 44.0695 60.255L26.0035 49.922C25.7059 49.7521 25.4584 49.5065 25.2863 49.2101C25.1141 48.9137 25.0234 48.5771 25.0232 48.2344V37.9184C25.0232 37.9069 25.0369 37.8992 25.0487 37.9047C25.0582 37.9107 25.0719 37.9047 25.0719 37.891V37.8795C25.0719 37.8719 25.0757 37.864 25.0837 37.8601L39.9627 29.3122C39.9764 29.3043 39.9704 29.2829 39.9548 29.2829C39.9507 29.2829 39.9467 29.2813 39.9438 29.2784C39.9409 29.2755 39.9392 29.2715 39.9392 29.2674L39.9685 19.1544C39.9699 18.8124 39.881 18.4761 39.7109 18.1794C39.5408 17.8827 39.2955 17.6361 38.9996 17.4645C38.7038 17.2929 38.3679 17.2024 38.0259 17.202C37.6839 17.2017 37.3479 17.2916 37.0517 17.4626L25.9937 23.8351C25.6985 24.005 25.3639 24.0945 25.0234 24.0945C24.6828 24.0945 24.3482 24.005 24.0531 23.8351L12.9601 17.4476C12.6646 17.2774 12.3295 17.1879 11.9884 17.1881C11.6474 17.1883 11.3124 17.2783 11.0171 17.4489C10.7218 17.6195 10.4765 17.8647 10.3059 18.1601C10.1354 18.4554 10.0455 18.7904 10.0453 19.1314V37.4094C10.0455 37.7501 9.95622 38.0849 9.78639 38.3802C9.61656 38.6755 9.37211 38.9211 9.07754 39.0922C8.78296 39.2633 8.44859 39.354 8.10792 39.3553C7.76724 39.3565 7.43222 39.2682 7.1364 39.0993L0.980002 35.579C0.681892 35.4088 0.434172 35.1626 0.262042 34.8655C0.0899121 34.5685 -0.000497937 34.2311 2.06267e-06 33.8878L0.0546891 1.93975C0.0555614 1.59927 0.145823 1.26499 0.316439 0.970353C0.487059 0.675703 0.732059 0.431033 1.02693 0.260803C1.3218 0.0905634 1.6562 0.000743275 1.99668 0.000323275C2.33716 -9.67248e-05 2.67178 0.0888833 2.96707 0.258383L24.0551 12.3704C24.3498 12.5396 24.6837 12.6287 25.0235 12.6287C25.3633 12.6287 25.6972 12.5396 25.9918 12.3704L47.0738 0.258383C47.3695 0.0884832 47.7048 -0.000626683 48.0459 3.31747e-06C48.387 0.000633317 48.7219 0.0909833 49.017 0.261973C49.3122 0.432973 49.5571 0.678593 49.7273 0.974183C49.8975 1.26978 49.987 1.60494 49.9867 1.94603V33.902C49.9869 34.2438 49.897 34.5797 49.726 34.8757C49.555 35.1717 49.309 35.4174 49.0127 35.588L37.9717 41.9465C37.6751 42.1174 37.4289 42.3636 37.258 42.6602C37.087 42.9568 36.9974 43.2932 36.9982 43.6355C36.999 43.9778 37.0901 44.3139 37.2624 44.6097C37.4347 44.9055 37.682 45.1506 37.9793 45.3202L44.0696 48.7873C44.3639 48.9549 44.6969 49.0426 45.0355 49.0419C45.3742 49.0411 45.7067 48.952 46.0003 48.7832L58.9993 41.3184L58.999 41.3187L58.9998 41.3175ZM60.2773 12.6515C60.2775 12.9954 60.369 13.333 60.5423 13.6301C60.7157 13.9271 60.9647 14.1728 61.2639 14.3422C61.5632 14.5116 61.9021 14.5986 62.246 14.5943C62.5898 14.59 62.9264 14.4946 63.2214 14.3178L69.0549 10.8178C69.3429 10.6452 69.5812 10.4011 69.7468 10.1091C69.9124 9.81705 69.9996 9.48705 69.9999 9.15145V2.01875C69.9993 1.67502 69.9076 1.33758 69.7341 1.04082C69.5607 0.744073 69.3116 0.498603 69.0124 0.329443C68.7132 0.160273 68.3744 0.0734534 68.0307 0.0778334C67.687 0.0822034 67.3506 0.177613 67.0558 0.354343L61.2226 3.85434C60.9345 4.02688 60.696 4.27106 60.5304 4.56313C60.3647 4.85519 60.2775 5.18517 60.2773 5.52094V12.6533V12.6514V12.6515Z" fill="#737373"/>
</svg>
