<svg width="93" height="62" viewBox="0 0 93 62" fill="none" xmlns="http://www.w3.org/2000/svg">
<path d="M91.882 32.1597C91.882 41.7421 88.6017 50.2497 81.9087 57.7677C79.4821 60.5708 77.5386 61.899 76.219 61.899C75.7561 61.899 75.23 61.7639 74.885 61.4189C74.5286 61.061 74.3254 60.5785 74.3186 60.0734C74.3186 59.3518 75.1697 58.2593 76.8947 56.6723C83.8407 50.0109 87.3457 41.7423 87.3457 31.9213C87.3457 21.0053 83.7376 12.1733 76.5497 5.3243C75.1265 4.0248 74.3618 2.9294 74.3618 2.0612C74.3618 1.6127 74.6033 1.08657 74.9914 0.7416C75.3557 0.40188 75.828 0.20135 76.3254 0.17523C77.9268 0.17523 80.3533 2.11873 83.395 6.02873C89.1307 13.3197 92.0056 22.1087 92.0056 32.2627L91.882 32.1597ZM0 29.739C0 20.1566 3.2775 11.649 9.959 4.117C12.397 1.3311 14.3434 0 15.6774 0C16.1259 0 16.652 0.11788 16.997 0.48013C17.3391 0.8395 17.5634 1.196 17.5634 1.67613C17.5634 2.39775 16.6923 3.50463 14.973 5.19513C8.1621 11.8881 4.58 20.1251 4.58 29.9631C4.58 40.8791 8.2341 49.7431 15.41 56.5601C16.859 57.8739 17.5806 58.9837 17.5806 59.8232C17.5755 60.0777 17.5185 60.3286 17.4132 60.5604C17.308 60.7922 17.1565 61.0002 16.9683 61.1716C16.6115 61.5356 16.1292 61.7495 15.6199 61.7696C13.961 61.7696 11.6667 59.8232 8.6135 55.9592C2.8175 48.7861 0.0029 40.0432 0.0029 29.7422L0 29.739ZM67.847 56.063H25.743C25.0668 56.0622 24.4182 55.7945 23.9385 55.318C23.4588 54.8415 23.1866 54.1948 23.1813 53.5186C23.1813 52.0495 24.2738 50.957 25.743 50.957H67.847C69.181 50.957 70.4087 52.0495 70.4087 53.5186C70.377 54.9877 69.3018 56.063 67.847 56.063ZM44.847 21.876C45.5974 21.7696 46.1667 24.2248 46.227 24.751C46.4024 26.0965 45.9539 27.3988 45.3415 28.5833C43.0502 33.0597 37.7659 36.6535 39.1747 42.3003C39.8043 44.7268 41.0606 46.4173 44.9678 48.4988C43.6539 48.9473 41.8082 48.0819 40.7789 47.3459C36.1818 44.2179 33.2608 39.0803 33.5454 33.4659C33.6701 31.6924 33.9755 29.9362 34.4568 28.2248C35.8943 23.3143 38.8297 19.0334 40.5374 14.2548C41.4085 11.9462 42.0353 9.1747 41.3453 6.7655C40.9823 5.5666 40.3754 4.4557 39.5628 3.5024C39.3414 3.21778 38.0218 1.7199 37.4957 1.901C39.8043 1.02987 41.8685 1.84062 43.8753 3.0395C45.4192 3.96812 46.6324 5.2849 47.5438 6.7799C49.2688 9.5371 49.9559 12.6938 50.3009 15.8994C50.4188 17.2334 50.2549 20.4534 51.7988 21.0831C53.4174 21.7702 54.6738 19.0734 55.0188 17.9809C55.7663 15.5113 54.7916 13.1423 53.8199 10.8538C54.047 11.3167 54.9124 11.8284 55.3034 12.1849L56.6805 13.5046C58.3595 15.2267 59.3917 17.3542 60.0817 19.6456C60.7113 21.7127 60.993 23.8402 61.1138 25.9044C61.4013 30.2169 60.4266 34.6473 58.7016 38.6004C57.9778 40.3813 56.9668 42.0314 55.7088 43.4851C54.4984 44.9082 52.8481 45.8339 51.5314 47.1536C54.6163 44.0514 56.2809 38.9914 55.8295 35.1446C55.6309 32.9232 54.7468 30.8184 53.2995 29.1215C53.2995 29.1215 53.4807 30.5015 53.6445 31.3525C53.9292 33.2586 52.6555 35.2625 51.1749 35.0353C50.0795 34.9175 50.6488 32.5657 50.7695 31.8182C51.1749 29.5872 50.6516 27.3993 49.8265 25.3322C49.033 23.3686 47.5352 21.8276 45.2466 22.1726L44.847 21.876Z" fill="#737373"/>
</svg>
