<svg width="159" height="52" viewBox="0 0 159 52" fill="none" xmlns="http://www.w3.org/2000/svg">
<path d="M68.0426 27.365C68.0426 34.8463 62.1517 40.3591 54.9223 40.3591C47.6929 40.3591 41.8021 34.8463 41.8021 27.365C41.8021 19.831 47.6929 14.3708 54.9223 14.3708C62.1517 14.3708 68.0426 19.831 68.0426 27.365ZM62.2992 27.365C62.2992 22.6899 58.8849 19.4912 54.9223 19.4912C50.9597 19.4912 47.5455 22.6899 47.5455 27.365C47.5455 31.9932 50.9597 35.2388 54.9223 35.2388C58.8849 35.2388 62.2992 31.9873 62.2992 27.365Z" fill="#737373"/>
<path d="M96.347 27.365C96.347 34.8463 90.4562 40.3591 83.2267 40.3591C75.9973 40.3591 70.1065 34.8463 70.1065 27.365C70.1065 19.8368 75.9973 14.3708 83.2267 14.3708C90.4562 14.3708 96.347 19.831 96.347 27.365ZM90.6036 27.365C90.6036 22.6899 87.1894 19.4912 83.2267 19.4912C79.2641 19.4912 75.8499 22.6899 75.8499 27.365C75.8499 31.9932 79.2641 35.2388 83.2267 35.2388C87.1894 35.2388 90.6036 31.9873 90.6036 27.365Z" fill="#737373"/>
<path d="M123.472 15.1559V38.4844C123.472 48.0806 117.776 52 111.042 52C104.703 52 100.888 47.7877 99.4487 44.3429L104.449 42.2748C105.34 44.3898 107.521 46.8855 111.036 46.8855C115.346 46.8855 118.018 44.2433 118.018 39.2694V37.4006H117.817C116.532 38.9765 114.055 40.3533 110.93 40.3533C104.39 40.3533 98.3991 34.694 98.3991 27.4119C98.3991 20.077 104.39 14.3708 110.93 14.3708C114.049 14.3708 116.526 15.7476 117.817 17.2767H118.018V15.1617H123.472V15.1559ZM118.424 27.4119C118.424 22.8364 115.352 19.4912 111.443 19.4912C107.48 19.4912 104.16 22.8364 104.16 27.4119C104.16 31.9405 107.48 35.2388 111.443 35.2388C115.352 35.2388 118.424 31.9405 118.424 27.4119Z" fill="#737373"/>
<path d="M132.465 1.48218V39.5624H126.863V1.48218H132.465Z" fill="#737373"/>
<path d="M154.294 31.6417L158.752 34.5944C157.314 36.7093 153.846 40.3533 147.855 40.3533C140.425 40.3533 134.876 34.6471 134.876 27.3591C134.876 19.6318 140.472 14.365 147.212 14.365C154 14.365 157.319 19.7314 158.404 22.6313L159 24.1077L141.516 31.3019C142.855 33.9089 144.936 35.2388 147.855 35.2388C150.78 35.2388 152.808 33.8093 154.294 31.6417ZM140.573 26.9666L152.26 22.1451C151.617 20.5223 149.683 19.3916 147.407 19.3916C144.488 19.3916 140.425 21.9517 140.573 26.9666V26.9666Z" fill="#737373"/>
<path d="M20.5974 23.9847V18.4718H39.296C39.4787 19.4326 39.5731 20.5692 39.5731 21.7994C39.5731 25.9355 38.435 31.05 34.7672 34.694C31.1997 38.3848 26.6415 40.3533 20.6032 40.3533C9.41121 40.3533 0 31.2961 0 20.1766C0 9.05723 9.41121 0 20.6032 0C26.7948 0 31.2056 2.4137 34.5196 5.55971L30.6041 9.44975C28.2277 7.23524 25.0081 5.51284 20.5974 5.51284C12.4245 5.51284 6.03238 12.0568 6.03238 20.1766C6.03238 28.2965 12.4245 34.8405 20.5974 34.8405C25.8985 34.8405 28.9177 32.7255 30.8518 30.804C32.4203 29.2456 33.4523 27.0194 33.8591 23.9788L20.5974 23.9847V23.9847Z" fill="#737373"/>
</svg>
