<?xml version="1.0" encoding="UTF-8"?>
<svg fill="none" viewBox="0 0 64 65" xmlns="http://www.w3.org/2000/svg">
<g clip-path="url(#a)" fill="#94A0B7">
<path d="m63.918 8.8915c0-4.6518-3.771-8.4228-8.4228-8.4228-4.2475 0-7.7587 3.1445-8.3372 7.2322l-0.0853-0.045c-6.8882-3.1068-12.69 2.396-12.69 2.396l-15.348 15.423 6.0642 5.84 12.353-12.136c5.7685-5.7688 8.9095-1.8643 8.9095-1.8643 4.3425 3.6685 0.1495 8.011 0.1495 8.011l6.2142 5.9898c5.0745-5.4808 5.3688-10.264 3.8263-14.069 4.153-0.52 7.3665-4.0608 7.3665-8.3545z"/>
<path d="m56.63 47.628c0.0288-0.0537 0.045-0.085 0.045-0.085 3.107-6.8885-2.396-12.691-2.396-12.691l-15.423-15.348-5.8398 6.0648 12.136 12.353c5.7685 5.7687 1.864 8.91 1.864 8.91-3.6682 4.3425-8.0107 0.1495-8.0107 0.1495l-5.9898 6.214c5.4805 5.0745 10.264 5.3687 14.069 3.8262 0.52 4.153 4.061 7.3668 8.3547 7.3668 4.6518 0 8.4225-3.771 8.4225-8.4228 0-4.2475-3.1442-7.7587-7.232-8.3375z"/>
<path d="m38.986 33.264-12.353 12.136c-5.7687 5.769-8.9097 1.8648-8.9097 1.8648-4.3425-3.6688-0.1498-8.011-0.1498-8.011l-6.2137-5.99c-5.0745 5.4805-5.369 10.264-3.8268 14.069-4.153 0.5203-7.3665 4.0608-7.3665 8.3548 0 4.6517 3.771 8.4225 8.423 8.4225 4.2475 2e-4 7.7588-3.144 8.3373-7.2318 0.054 0.0288 0.0852 0.0448 0.0852 0.0448 6.8885 3.1075 12.69-2.396 12.69-2.396l15.348-15.423-6.0642-5.8397z"/>
<path d="m18.931 26.652c-5.7687-5.7687-1.8647-8.91-1.8647-8.91 3.669-4.3425 8.0112-0.1495 8.0112-0.1495l5.9898-6.2137c-5.4805-5.0745-10.264-5.3688-14.069-3.8265-0.52-4.1532-4.0605-7.3668-8.355-7.3668-4.651 0-8.4218 3.771-8.4222 8.4228 0 4.2477 3.1442 7.759 7.2322 8.3375-0.02875 0.054-0.04475 0.0855-0.04475 0.0855-3.1075 6.888 2.3958 12.69 2.3958 12.69l15.423 15.348 5.8398-6.0642-12.136-12.353"/>
</g>
<defs>
<clipPath id="a">
<rect width="64" height="64.5" fill="#fff"/>
</clipPath>
</defs>
</svg>
