<?xml version="1.0" encoding="UTF-8"?>
<svg fill="none" viewBox="0 0 155 65" xmlns="http://www.w3.org/2000/svg">
<g clip-path="url(#a)" fill="#94A0B7">
<path d="m75.62 22.75h-6.7856l0.0112 12.696c0 3.7103-1.5906 6.7121-5.301 6.7121-3.7119 0-5.3171-3.0018-5.3171-6.7121v-12.684h-6.7679l-0.0019 12.684c0 7.3318 4.7129 13.274 12.046 13.274 7.3309 0 12.114-5.9424 12.114-13.274l0.0021-12.696z"/>
<path d="m143.56 15.014h-6.752v33.051h6.752v-33.051z"/>
<path d="m148.54 15.637v-0.5939h2.631v0.5936h-0.962v2.6167h-0.706v-2.6164h-0.963z"/>
<path d="m152.54 15.043 0.751 2.2075h9e-3l0.71-2.2075h0.994v3.2103h-0.66v-2.2754h-9e-3l-0.787 2.2754h-0.545l-0.786-2.2527h-9e-3v2.2527h-0.661v-3.2103h0.993z"/>
<path d="m45.939 22.474c-5.8203-1.3432-9.4919 4.4389-9.6444 4.7489-0.0751 0.1522-0.0778 0.2409-0.3358 0.2341-0.2129-0.0044-0.2374-0.2341-0.2374-0.2341l-0.7223-4.423h-6.0481v25.243h6.78v-13.664c0-1.1166 3.007-6.4703 8.8325-5.0921 2.9462 0.6969 4.1959 1.9471 4.1959 1.9471v-7.6898c-1.0903-0.5686-1.8383-0.8441-2.8204-1.0708z"/>
<path d="m84.821 56.358v-9.083c6e-4 0 0.0015 9e-4 0.0021 0.0015l1e-3 -3.4013s0.0108-0.2722 0.256-0.2756c0.2189-0.0025 0.2676 0.1426 0.3209 0.2756 0.514 1.279 3.3415 6.1526 9.6156 4.6239 5.6163-1.5822 9.7363-6.7397 9.7363-12.865 0-7.3795-5.9841-13.364-13.366-13.364s-13.365 5.9849-13.365 13.364v20.724h6.7986v4e-4zm6.572-27.487c3.737 0 6.7657 3.0293 6.7657 6.7636 0 3.7373-3.0287 6.7669-6.7657 6.7669-3.7365 0-6.7642-3.0293-6.7642-6.7669 3e-4 -3.7343 3.0281-6.7636 6.7642-6.7636z"/>
<path d="m127.27 48.054h6.798v-12.42c0-7.3795-5.983-13.364-13.364-13.364-7.382 0-13.366 5.9849-13.366 13.364 0 6.125 4.12 11.282 9.736 12.865 6.275 1.5286 9.101-3.3449 9.616-4.6239 0.053-0.133 0.101-0.2778 0.321-0.2756 0.245 0.0034 0.255 0.2756 0.255 0.2756m0.196-8.2411c0 3.7374-3.029 6.767-6.764 6.767-3.737 0-6.766-3.0293-6.766-6.767 0-3.7342 3.029-6.7635 6.766-6.7635 3.736 0 6.764 3.0293 6.764 6.7635z"/>
<path d="m7.7125 48.002h-7.7125v-33.002h8.2754c10.021 0 17.621 1.8386 17.621 16.501 0 14.52-8.0504 16.501-18.184 16.501zm1.8414-27.281h-2.7264v21.555l2.7999 0.0716c5.7418 0 9.4401-0.5227 9.4401-10.847 0-9.9005-3.2649-10.78-9.5136-10.78z"/>
</g>
<defs>
<clipPath id="a">
<rect transform="translate(0 15)" width="155" height="41.357" fill="#fff"/>
</clipPath>
</defs>
</svg>