<svg width="144" height="50" viewBox="0 0 144 50" fill="none" xmlns="http://www.w3.org/2000/svg">
<g>
<path d="M8.2848 35.7094C8.89333 37.3246 9.73582 38.7057 10.8124 39.8526C11.8891 40.9997 13.1645 41.8774 14.6388 42.4861C16.1133 43.0948 17.7164 43.399 19.4483 43.399C21.1335 43.399 22.7131 43.0829 24.1876 42.4508C25.6621 41.8187 26.9492 40.9293 28.0491 39.7824C29.1491 38.6353 30.0034 37.266 30.6119 35.6742C31.2204 34.0825 31.5246 32.3036 31.5246 30.3372V0H38.8967V49.1573H31.5948V44.5927C29.9566 46.3248 28.0257 47.6591 25.8024 48.5956C23.5789 49.5318 21.1802 50 18.6058 50C15.9845 50 13.5389 49.5435 11.2687 48.6306C8.99866 47.7177 7.03264 46.4186 5.37111 44.7332C3.70958 43.0477 2.39885 41.0231 1.43937 38.6588C0.479738 36.2945 0 33.6612 0 30.7584V0H7.37209V30.3372C7.37209 32.3036 7.67627 34.0941 8.2848 35.7094Z" fill="#737373"/>
<path d="M51.6041 0V17.9073C53.2424 16.2687 55.1382 14.9697 57.2912 14.0099C59.4443 13.05 61.7847 12.5702 64.3122 12.5702C66.9335 12.5702 69.3906 13.0617 71.6843 14.0448C73.9778 15.028 75.967 16.3623 77.6521 18.0477C79.3373 19.7332 80.6713 21.7228 81.6543 24.0168C82.6372 26.3109 83.1286 28.7454 83.1286 31.3203C83.1286 33.8951 82.6372 36.3179 81.6543 38.5884C80.6713 40.859 79.3373 42.8371 77.6521 44.5223C75.967 46.2078 73.9778 47.5421 71.6843 48.5252C69.3906 49.5084 66.9334 49.9998 64.3122 49.9998C61.7846 49.9998 59.4327 49.52 57.2561 48.5602C55.0796 47.6005 53.1721 46.3013 51.5339 44.6628V49.1572H44.5129V0H51.6041ZM52.4115 36.1657C53.0434 37.664 53.9211 38.9748 55.0445 40.0984C56.1679 41.222 57.4784 42.1116 58.9762 42.767C60.4742 43.4225 62.0889 43.7502 63.8208 43.7502C65.506 43.7502 67.0973 43.4225 68.5951 42.767C70.0929 42.1116 71.3916 41.2222 72.4919 40.0984C73.5918 38.975 74.4694 37.664 75.1247 36.1657C75.78 34.6676 76.1076 33.0525 76.1076 31.3203C76.1076 29.588 75.78 27.9611 75.1247 26.4396C74.4694 24.918 73.5918 23.5955 72.4919 22.4719C71.3918 21.3485 70.093 20.4705 68.5951 19.8386C67.0971 19.2066 65.5058 18.8904 63.8208 18.8904C62.1358 18.8904 60.5444 19.2065 59.0466 19.8386C57.5488 20.4707 56.2382 21.3485 55.1147 22.4719C53.9915 23.5955 53.1021 24.918 52.4468 26.4396C51.7915 27.9611 51.4639 29.588 51.4639 31.3203C51.4637 33.0525 51.7797 34.6676 52.4115 36.1657Z" fill="#737373"/>
<path d="M87.1299 24.0871C88.0659 21.8399 89.3534 19.8619 90.9914 18.1531C92.6295 16.4443 94.5722 15.0984 96.819 14.1152C99.0657 13.1321 101.5 12.6406 104.121 12.6406C106.695 12.6406 109.082 13.1088 111.282 14.045C113.482 14.9814 115.378 16.2806 116.969 17.9426C118.561 19.6045 119.801 21.5709 120.69 23.8414C121.58 26.1121 122.024 28.5816 122.024 31.2503V33.5677H92.8873C93.1214 35.019 93.5895 36.365 94.2915 37.6054C94.9937 38.846 95.8712 39.9229 96.9243 40.8358C97.9775 41.7488 99.1711 42.4628 100.505 42.9776C101.839 43.4926 103.255 43.7502 104.753 43.7502C109.012 43.7502 112.453 41.9945 115.074 38.4832L120.199 42.2753C118.421 44.663 116.221 46.5357 113.6 47.8933C110.978 49.2509 108.029 49.9298 104.753 49.9298C102.085 49.9298 99.5926 49.4615 97.2756 48.5253C94.9586 47.589 92.946 46.278 91.2375 44.5926C89.5291 42.9071 88.1834 40.9292 87.2005 38.6586C86.2175 36.3881 85.726 33.9184 85.726 31.2499C85.7257 28.7219 86.1939 26.3343 87.1299 24.0871ZM96.9945 21.3131C95.0052 22.9751 93.683 25.1872 93.0277 27.9494H114.863C114.255 25.1872 112.956 22.9751 110.966 21.3131C108.977 19.6512 106.648 18.8202 103.981 18.8202C101.312 18.8202 98.9839 19.6512 96.9945 21.3131Z" fill="#737373"/>
<path d="M135.294 22.1208C133.796 23.7594 133.047 25.9831 133.047 28.7922V49.1576H125.956V13.3429H132.977V17.767C133.866 16.3157 135.025 15.1687 136.452 14.326C137.88 13.4832 139.577 13.0618 141.543 13.0618H144V19.6629H141.051C138.711 19.6631 136.792 20.4823 135.294 22.1208Z" fill="#737373"/>
</g>
</svg>
