<svg width="69" height="64" viewBox="0 0 69 64" fill="none" xmlns="http://www.w3.org/2000/svg">
<path d="M19.9191 28.5583L8.90405 32.5662C9.04555 34.3322 9.34932 36.0766 9.7773 37.786L20.2403 33.9756C19.905 32.2096 19.7851 30.3854 19.9222 28.558M68.5982 16.378C67.8301 14.7934 66.9414 13.262 65.9121 11.8186L54.9001 15.8265C56.1817 17.1375 57.2566 18.6108 58.1363 20.1865L68.5983 16.3775V16.378H68.598H68.5982Z" fill="#737373"/>
<path d="M49.058 16.3143C47.6727 15.1122 46.1078 14.0745 44.366 13.2622H44.3652C34.1392 8.49465 21.9382 12.9301 17.1702 23.1599C16.9044 23.7311 16.6658 24.3146 16.4552 24.9083C15.8601 26.6395 15.5124 28.4095 15.3795 30.1766L15.3407 30.1912L15.3377 30.23L8.70835 32.6423L4.44275 34.2188L4.44086 34.195L4.32389 34.2376C3.90989 28.9993 4.79287 23.5876 7.16829 18.4936C7.477 17.8314 7.80845 17.18 8.16205 16.5406C15.9929 1.95455 33.812 -4.14245 48.839 2.97455C51.8731 4.41075 54.6545 6.32895 57.0751 8.65465C58.6546 10.1166 60.0798 11.7369 61.3283 13.4901L50.3163 17.4991C50.2596 17.4412 50.2025 17.3836 50.1452 17.3263L50.1147 17.3374C49.7746 16.984 49.4223 16.6426 49.0584 16.3137L49.0581 16.3134L49.058 16.3143Z" fill="#737373"/>
<path d="M4.93835 52.0082L4.9211 52.0147C2.6349 48.7944 0.9663 45.1778 0 41.3487L10.465 37.5376L10.4655 37.5384L10.472 37.5721L10.5399 37.547L10.5415 37.551C11.079 40.3973 12.1978 43.1128 13.8293 45.5006C14.4544 46.393 15.1505 47.2336 15.9106 48.0142L15.8691 48.0296L15.9483 48.1126L5.0353 52.1475C5.00296 52.1014 4.97062 52.0551 4.93854 52.0084L4.93835 52.0082Z" fill="#737373"/>
<path d="M46.502 49.1931C40.8281 52.7016 33.55 53.3794 27.065 50.3553C24.8377 49.3185 22.8176 47.885 21.1035 46.125L10.1145 50.1259L10.1989 50.2437L10.1935 50.2459C13.2149 54.5627 17.3366 58.1712 22.3945 60.5679C33.3025 65.7329 45.6785 63.9373 54.6395 56.9874C58.6522 53.9816 62.0023 49.9753 64.2653 45.1224C66.6423 40.0297 67.5201 34.6204 67.0993 29.3864L66.7933 29.498C66.7892 29.442 66.7851 29.3859 66.7805 29.3298L55.8675 33.3612L55.868 33.3623C55.6897 35.8304 55.0683 38.2462 54.0336 40.4941C52.3315 44.2009 49.6769 47.1537 46.5029 49.1927H46.5026L46.502 49.1931Z" fill="#737373"/>
<path d="M58.653 19.9982L58.8167 19.9384V19.9381C60.5423 23.4914 61.5893 27.3356 61.9039 31.2731L50.9139 35.2714L50.9198 35.1894L50.7122 35.2662C51.0114 31.1995 50.0991 27.1552 48.1693 23.6432L58.5592 19.8024L58.5599 19.8013C58.5911 19.8668 58.6221 19.9323 58.6529 19.9981L58.653 19.9982Z" fill="#737373"/>
<path d="M19.932 28.4941L8.99405 32.536C9.13421 34.3176 9.43608 36.0765 9.86168 37.8005L20.2507 33.9575C19.9146 32.1726 19.7939 30.3355 19.9357 28.493M68.2687 16.211C67.5059 14.6129 66.6229 13.0688 65.6009 11.613L54.6659 15.6549C55.9381 16.9772 57.0055 18.4629 57.8788 20.0523L68.2668 16.2099L68.2684 16.211H68.2682H68.2687Z" fill="#737373"/>
<path d="M8.99355 32.5383L19.9045 28.5414L19.8601 30.7335L9.33315 34.7088L8.99193 32.5356L8.99327 32.5383H8.99355ZM54.6675 15.6233L65.7486 11.8208L66.9002 13.559L56.1332 17.365L54.6686 15.6225L54.667 15.6233H54.6675Z" fill="#737373"/>
<path d="M10.1951 50.2054L21.1191 46.2301L24.4231 49.3472L12.9671 53.6479L10.1955 50.2043L10.1949 50.2054H10.1951ZM66.9631 29.3604L55.8681 33.3614L55.0509 37.8027L66.8809 33.5864L66.9648 29.361L66.9634 29.3604H66.9631V29.3604Z" fill="#737373"/>
</svg>
