<?xml version="1.0" encoding="UTF-8"?>
<svg fill="none" viewBox="0 0 92 65" xmlns="http://www.w3.org/2000/svg">
<g clip-path="url(#a)">
<path d="m91.882 34.21c0 9.5824-3.2803 18.09-9.9733 25.608-2.4266 2.8031-4.3701 4.1313-5.6897 4.1313-0.4629 0-0.989-0.1351-1.334-0.4801-0.3564-0.3579-0.5596-0.8404-0.5664-1.3455 0-0.7216 0.8511-1.8141 2.5761-3.4011 6.946-6.6614 10.451-14.93 10.451-24.751 0-10.916-3.6081-19.748-10.796-26.597-1.4232-1.2995-2.1879-2.3949-2.1879-3.2631 0-0.4485 0.2415-0.97463 0.6296-1.3196 0.3643-0.33972 0.8366-0.54025 1.334-0.56637 1.6014 0 4.0279 1.9435 7.0696 5.8535 5.7357 7.291 8.6106 16.08 8.6106 26.234l-0.1236-0.1035zm-91.882-2.4207c0-9.5824 3.2775-18.09 9.959-25.622 2.438-2.7859 4.3844-4.117 5.7184-4.117 0.4485 0 0.9746 0.11788 1.3196 0.48013 0.3421 0.35937 0.5664 0.71587 0.5664 1.196 0 0.72162-0.8711 1.8285-2.5904 3.519-6.8109 6.693-10.393 14.93-10.393 24.768 0 10.916 3.6541 19.78 10.83 26.597 1.449 1.3138 2.1706 2.4236 2.1706 3.2631-0.0051 0.2545-0.0621 0.5054-0.1674 0.7372-0.1052 0.2318-0.2567 0.4398-0.4449 0.6112-0.3568 0.364-0.8391 0.5779-1.3484 0.598-1.6589 0-3.9532-1.9464-7.0064-5.8104-5.796-7.1731-8.6106-15.916-8.6106-26.217l-0.002875-0.0029zm67.847 26.324h-42.104c-0.6762-8e-4 -1.3248-0.2685-1.8045-0.745s-0.7519-1.1232-0.7572-1.7994c0-1.4691 1.0925-2.5616 2.5617-2.5616h42.104c1.334 0 2.5617 1.0925 2.5617 2.5616-0.0317 1.4691-1.1069 2.5444-2.5617 2.5444zm-23-34.187c0.7504-0.1064 1.3197 2.3488 1.38 2.875 0.1754 1.3455-0.2731 2.6478-0.8855 3.8323-2.2913 4.4764-7.5756 8.0702-6.1668 13.717 0.6296 2.4265 1.8859 4.117 5.7931 6.1985-1.3139 0.4485-3.1596-0.4169-4.1889-1.1529-4.5971-3.128-7.5181-8.2656-7.2335-13.88 0.1247-1.7735 0.4301-3.5297 0.9114-5.2411 1.4375-4.9105 4.3729-9.1914 6.0806-13.97 0.8711-2.3086 1.4979-5.0801 0.8079-7.4893-0.363-1.1989-0.9699-2.3098-1.7825-3.2631-0.2214-0.28462-1.541-1.7825-2.0671-1.6014 2.3086-0.87113 4.3728-0.06038 6.3796 1.1385 1.5439 0.92862 2.7571 2.2454 3.6685 3.7404 1.725 2.7572 2.4121 5.9139 2.7571 9.1195 0.1179 1.334-0.046 4.554 1.4979 5.1837 1.6186 0.6871 2.875-2.0097 3.22-3.1022 0.7475-2.4696-0.2272-4.8386-1.1989-7.1271 0.2271 0.4629 1.0925 0.9746 1.4835 1.3311l1.3771 1.3197c1.679 1.7221 2.7112 3.8496 3.4012 6.141 0.6296 2.0671 0.9113 4.1946 1.0321 6.2588 0.2875 4.3125-0.6872 8.7429-2.4122 12.696-0.7238 1.7809-1.7348 3.431-2.9928 4.8847-1.2104 1.4231-2.8607 2.3488-4.1774 3.6685 3.0849-3.1022 4.7495-8.1622 4.2981-12.009-0.1986-2.2214-1.0827-4.3262-2.53-6.0231 0 0 0.1812 1.38 0.345 2.231 0.2847 1.9061-0.989 3.91-2.4696 3.6828-1.0954-0.1178-0.5261-2.4696-0.4054-3.2171 0.4054-2.231-0.1179-4.4189-0.943-6.486-0.7935-1.9636-2.2913-3.5046-4.5799-3.1596l-0.3996-0.2961z" fill="#94A0B7"/>
</g>
<defs>
<clipPath id="a">
<rect transform="translate(0 2)" width="92" height="62" fill="#fff"/>
</clipPath>
</defs>
</svg>