<svg width="118" height="45" viewBox="0 0 118 45" fill="none" xmlns="http://www.w3.org/2000/svg">
<path d="M67.4192 3.06432L67.6783 3.23712C70.7232 5.24792 72.9064 8.00572 74.3427 11.3381C74.6875 11.855 74.4577 12.1424 73.7682 12.3146L72.6013 12.6133C69.9631 13.2929 67.8698 13.8645 65.2662 14.5441L63.7812 14.9309C63.2466 15.0631 63.0991 15.0076 62.5303 14.36L62.4501 14.268C61.639 13.3489 61.0315 12.735 59.9571 12.1869L59.7499 12.0848C56.1304 10.304 52.6259 10.8209 49.3509 12.9468C45.444 15.4745 43.4332 19.2091 43.4906 23.8628C43.5482 28.4588 46.7079 32.2507 51.2468 32.8826C55.1535 33.3998 58.4282 32.0209 61.0136 29.091C61.5308 28.4588 61.9903 27.7695 62.5646 26.9651H51.4766C50.2701 26.9651 49.9829 26.2184 50.3851 25.2417L50.5842 24.7727C51.3226 23.0548 52.4678 20.5855 53.2116 19.1737L53.3738 18.8697C53.5725 18.5253 53.9758 18.06 54.7513 18.06H73.2403C74.0707 15.4292 75.418 12.9434 77.215 10.5912C81.4091 5.07592 86.4649 2.20312 93.302 0.996822C99.1621 -0.0374778 104.677 0.537022 109.676 3.92682C114.214 7.02912 117.03 11.2234 117.777 16.7388C118.753 24.495 116.512 30.8148 111.17 36.2148C107.378 40.0641 102.724 42.4771 97.381 43.5686C95.8299 43.856 94.2787 43.9134 92.785 44.0857C87.5568 43.9707 82.7882 42.4771 78.767 39.03C75.9384 36.5847 73.9901 33.5798 73.0219 30.0813C72.3425 31.4523 71.5345 32.7556 70.6089 33.9739C66.4722 39.4321 61.0718 42.8216 54.2349 43.7412C48.6045 44.4879 43.3759 43.3962 38.7799 39.9491C34.5284 36.7317 32.1154 32.4803 31.4833 27.1951C30.7365 20.9326 32.575 15.3021 36.3669 10.3611C40.4462 5.01792 45.8465 1.62842 52.4539 0.421923C57.7545 -0.536877 62.8332 0.0546222 67.4192 3.06432ZM94.7502 11.2971L94.5663 11.3381C89.2233 12.5446 85.7762 15.9341 84.5123 21.3347C83.478 25.8159 85.6612 30.3547 89.7979 32.1927C92.9576 33.5716 96.1176 33.3992 99.1625 31.8479C103.701 29.4925 106.172 25.8154 106.459 20.8749C106.402 20.1282 106.402 19.5534 106.287 18.9788C105.264 13.3552 100.141 10.1466 94.7502 11.2971ZM26.8302 21.7941C27.06 21.7941 27.175 21.9665 27.175 22.1963L27.06 23.5752C27.06 23.805 26.8302 23.9773 26.6578 23.9773L14.1338 23.92C13.904 23.92 13.8466 23.7476 13.9614 23.5752L14.7657 22.1389C14.8807 21.9665 15.1105 21.7941 15.3403 21.7941H26.8302ZM28.0941 16.5085C28.3239 16.5085 28.4389 16.6809 28.3815 16.8533L27.9217 18.2322C27.8644 18.462 27.6346 18.5768 27.4048 18.5768L0.229767 18.6344C-1.25915e-05 18.6344 -0.0573926 18.5194 0.0573774 18.347L1.26388 16.7959C1.37889 16.6236 1.66605 16.5085 1.89583 16.5085H28.0941ZM31.0817 11.223C31.3115 11.223 31.3689 11.3954 31.2541 11.5678L30.2774 13.0614C30.1624 13.2338 29.8752 13.4062 29.7028 13.4062L8.90477 13.3486C8.67476 13.3486 8.61738 13.2338 8.73215 13.0614L9.93865 11.5104C10.0537 11.338 10.3409 11.223 10.5706 11.223H31.0817Z" fill="#737373"/>
</svg>
