<?xml version="1.0" encoding="UTF-8"?>
<svg fill="none" viewBox="0 0 69 65" xmlns="http://www.w3.org/2000/svg">
<g clip-path="url(#a)" fill="#94A0B7">
<path d="m20.172 29.81-11.015 4.0079c0.1415 1.766 0.44527 3.5104 0.87325 5.2198l10.463-3.8104c-0.3353-1.766-0.4552-3.5902-0.3181-5.4176m48.676-12.18c-0.7681-1.5846-1.6568-3.116-2.6861-4.5594l-11.012 4.0079c1.2816 1.311 2.3565 2.7843 3.2362 4.36l10.462-3.809v5e-4h-3e-4z"/>
<path d="m49.311 17.566c-1.3853-1.2021-2.9502-2.2398-4.692-3.0521h-8e-4c-10.226-4.7675-22.427-0.3321-27.195 9.8977-0.2658 0.5712-0.5044 1.1547-0.715 1.7484-0.5951 1.7312-0.9428 3.5012-1.0757 5.2683l-0.0388 0.0146-3e-3 0.0388-6.6294 2.4123-4.2656 1.5765-0.00189-0.0238-0.11697 0.0426c-0.414-5.2383 0.46898-10.65 2.8444-15.744 0.30871-0.6622 0.64016-1.3136 0.99376-1.953 7.8309-14.586 25.65-20.683 40.677-13.566 3.0341 1.4362 5.8155 3.3544 8.2361 5.6801 1.5795 1.4619 3.0047 3.0822 4.2532 4.8354l-11.012 4.009c-0.0567-0.0579-0.1138-0.1155-0.1711-0.1728l-0.0305 0.0111c-0.3401-0.3534-0.6924-0.6948-1.0563-1.0237l-3e-4 -3e-4z"/>
<path d="m5.1913 53.26-0.01725 0.0065c-2.2862-3.2203-3.9548-6.8369-4.9211-10.666l10.465-3.8111 5e-4 8e-4 0.0065 0.0337 0.0679-0.0251 0.0016 4e-3c0.5375 2.8463 1.6563 5.5618 3.2878 7.9496 0.6251 0.8924 1.3212 1.733 2.0813 2.5136l-0.0415 0.0154 0.0792 0.083-10.913 4.0349c-0.03234-0.0461-0.06468-0.0924-0.09676-0.1391z"/>
<path d="m46.755 50.445c-5.6739 3.5085-12.952 4.1863-19.437 1.1622-2.2273-1.0368-4.2474-2.4703-5.9615-4.2303l-10.989 4.0009 0.0844 0.1178-0.0054 0.0022c3.0214 4.3168 7.1431 7.9253 12.201 10.322 10.908 5.165 23.284 3.3694 32.245-3.5805 4.0127-3.0058 7.3627-7.0121 9.6257-11.865 2.377-5.0927 3.2549-10.502 2.8341-15.736l-0.3061 0.1116c-0.0041-0.056-0.0081-0.1121-0.0127-0.1682l-10.913 4.0314 5e-4 0.0011c-0.1783 2.4681-0.7997 4.8839-1.8344 7.1318-1.7021 3.7068-4.3567 6.6596-7.5307 8.6986h-3e-4z"/>
<path d="m58.906 21.25 0.1636-0.0598v-3e-4c1.7256 3.5533 2.7726 7.3975 3.0872 11.335l-10.99 3.9983 0.0059-0.082-0.2075 0.0768c0.2992-4.0667-0.6132-8.111-2.543-11.623l10.39-3.8408 6e-4 -0.0011c0.0312 0.0655 0.0622 0.131 0.093 0.1968z"/>
<path d="m20.185 29.746-10.938 4.0419c0.14016 1.7816 0.44203 3.5405 0.86763 5.2645l10.389-3.843c-0.3361-1.7849-0.4568-3.622-0.315-5.4645m48.333-12.282c-0.7628-1.5981-1.6458-3.1422-2.6678-4.598l-10.935 4.0419c1.2722 1.3223 2.3396 2.808 3.2129 4.3974l10.388-3.8424 0.0016 0.0011h-2e-4z"/>
<path d="m9.2465 33.79 10.911-3.9969-0.0444 2.1921-10.527 3.9753-0.34122-2.1732 0.00134 0.0027zm45.674-16.915 11.081-3.8025 1.1517 1.7382-10.767 3.806-1.4646-1.7425-0.0016 8e-4z"/>
<path d="m10.448 51.457 10.924-3.9753 3.304 3.1171-11.456 4.3007-2.7716-3.4436-6e-4 0.0011zm56.768-20.845-11.095 4.001-0.8172 4.4413 11.83-4.2163 0.0839-4.2254-0.0014-6e-4h-3e-4z"/>
</g>
<defs>
<clipPath id="a">
<rect transform="translate(0 1)" width="69" height="63.879" fill="#fff"/>
</clipPath>
</defs>
</svg>
